<svg xmlns="http://www.w3.org/2000/svg" viewBox="0 0 495.912 495.912" xml:space="preserve">
  <path style="fill:#f9bda0" d="M306.74 303.912h-117.6l7.856-96H298.9z"/>
  <path style="fill:#e28f71" d="M306.74 303.912h-58.992l-58.608-96H298.9z"/>
  <path style="fill:#fcccb9" d="M327.356 131.408c0 69.072-34.816 131.568-79.4 131.568-44.6 0-79.4-62.496-79.4-131.568 0-69.08 34.8-80.576 79.4-80.576 44.584 0 79.4 11.496 79.4 80.576"/>
  <path style="fill:#f9bda0" d="M247.956 50.832c44.584 0 79.4 11.496 79.4 80.576 0 69.072-34.816 131.568-79.4 131.568"/>
  <path style="fill:#042635" d="M181.78 101.168s-.664 24.36-6.832 24.36l-4.544 4.544s.968 29.552 2.6 30.856c1.624 1.304-4.552 3.584-6.496-12.336-1.952-15.92-2.928-50.672-2.928-50.672zm132.352 0s.664 24.36 6.832 24.36l4.544 4.544s-.968 29.552-2.6 30.856c-1.624 1.304 4.552 3.584 6.496-12.336 1.952-15.92 2.928-50.672 2.928-50.672z"/>
  <path style="fill:#a02bbc" d="m461.476 330.296-117.504-40.68-11.936-.68-21.2-21.352-61.8 39.136-61.832-39.144-22.408 19.4-10.976 1.976-120.816 41.344-21.048 165.616h472z"/>
  <path style="fill:#8720a0" d="M79.956 495.912h404l-22.48-165.616-117.504-40.68-19.736-2.144-13.4-19.888-61.8 39.136-61.832-39.144 61.928 39.216-95.312-17.84-120.816 41.344"/>
  <path style="fill:#6e0787" d="M247.956 495.912h236l-22.48-165.616-117.504-40.68-28.504.296-4.632-22.328-62.208 39.176"/>
  <path style="fill:#58036d" d="M399.956 495.912h84l-22.48-165.616"/>
  <path style="fill:#7c4615" d="M210.428 222.352c-.16-.216-.248-.368-.248-.368s.056.216.248.368m75.032 0c.168-.216.256-.368.256-.368s-.072.216-.256.368"/>
  <path style="fill:#0a4554" d="M234.404 152.52c0 13.896-11.872 25.152-26.504 25.152-14.648 0-26.536-11.256-26.536-25.152s11.888-18.864 26.536-18.864c14.624 0 26.504 4.968 26.504 18.864"/>
  <path style="fill:#472108" d="M207.892 181.672c-16.832 0-30.536-13.072-30.536-29.152 0-14.528 11.136-22.864 30.536-22.864 19.392 0 30.504 8.336 30.504 22.864.008 16.072-13.68 29.152-30.504 29.152m0-44.016c-14.952 0-22.536 5-22.536 14.864 0 11.664 10.112 21.152 22.536 21.152 12.416 0 22.504-9.488 22.504-21.152.008-9.864-7.568-14.864-22.504-14.864"/>
  <path style="fill:#472108" d="M179.708 151.912h-11.752c-2.208 0-4-1.792-4-4s1.792-4 4-4h11.752c2.208 0 4 1.792 4 4s-1.792 4-4 4"/>
  <path style="fill:#0a4554" d="M259.348 152.52c0 13.896 11.88 25.152 26.528 25.152 14.632 0 26.512-11.256 26.512-25.152s-11.88-18.864-26.512-18.864c-14.648 0-26.528 4.968-26.528 18.864"/>
  <path style="fill:#472108" d="M285.876 181.672c-16.832 0-30.528-13.072-30.528-29.152 0-14.528 11.128-22.864 30.528-22.864 19.392 0 30.512 8.336 30.512 22.864.008 16.072-13.68 29.152-30.512 29.152m0-44.016c-14.952 0-22.528 5-22.528 14.864 0 11.664 10.112 21.152 22.528 21.152s22.512-9.488 22.512-21.152c.008-9.864-7.576-14.864-22.512-14.864"/>
  <path style="fill:#472108" d="M327.956 151.912h-16c-2.208 0-4-1.792-4-4s1.792-4 4-4h16c2.208 0 4 1.792 4 4s-1.792 4-4 4m-67.664 10.304c-2.208 0-4-1.792-4-4 0-5.184-4.232-9.408-9.448-9.408-5.168 0-9.384 4.224-9.384 9.408 0 2.208-1.792 4-4 4s-4-1.792-4-4c0-9.6 7.8-17.408 17.384-17.408 9.616 0 17.448 7.808 17.448 17.408 0 2.208-1.792 4-4 4"/>
  <path transform="rotate(134.992 199.822 297.101)" style="fill:#cb3aef" d="M172.006 257.133h55.631v79.935h-55.631z"/>
  <path style="fill:#a02bbc" d="m247.764 305.672-39.328 39.344-56.528-56.52 53.52-25.144z"/>
  <path transform="rotate(45.008 296.091 297.087)" style="fill:#a02bbc" d="M268.275 257.124h55.631v79.927h-55.631z"/>
  <path transform="rotate(160.282 92.574 308.895)" style="fill:#073d5b" d="M52.412 297.202h80.323v23.385H52.412z"/>
  <path transform="rotate(160.275 94.014 312.896)" style="fill:#042635" d="M53.855 305.421h80.318v14.952H53.855z"/>
  <path transform="rotate(160.422 92.56 308.89)" style="fill:#e5b342" d="M87.676 297.201h9.768v23.376h-9.768z"/>
  <path transform="rotate(160.385 77.709 314.286)" style="fill:#e5b342" d="M72.829 302.593h9.76v23.385h-9.76z"/>
  <path transform="rotate(160.396 93.4 311.16)" style="fill:#d19315" d="M88.516 301.888h9.768v18.543h-9.768z"/>
  <path transform="rotate(160.385 78.53 316.556)" style="fill:#d19315" d="M73.649 307.283h9.76v18.545h-9.76z"/>
  <path transform="rotate(19.718 401.193 308.89)" style="fill:#073d5b" d="M361.032 297.198h80.323v23.385h-80.323z"/>
  <path transform="rotate(19.725 399.782 312.843)" style="fill:#042635" d="M359.623 305.367h80.318v14.952h-80.318z"/>
  <path transform="rotate(19.596 401.241 308.927)" style="fill:#e5b342" d="M396.361 297.235h9.76v23.385h-9.76z"/>
  <path transform="rotate(19.615 416.048 314.29)" style="fill:#e5b342" d="M411.167 302.597h9.76v23.385h-9.76z"/>
  <path transform="rotate(19.615 400.343 311.178)" style="fill:#d19315" d="M395.463 301.906h9.76v18.545h-9.76z"/>
  <path transform="rotate(19.615 415.245 316.574)" style="fill:#d19315" d="M410.365 307.301h9.76v18.545h-9.76z"/>
  <circle style="fill:#d19315" cx="247.956" cy="347.888" r="5.352"/>
  <circle style="fill:#d19315" cx="247.956" cy="387.352" r="5.352"/>
  <circle style="fill:#d19315" cx="247.956" cy="426.792" r="5.352"/>
  <circle style="fill:#d19315" cx="247.956" cy="466.312" r="5.352"/>
  <path style="fill:#a02bbc" d="M195.1 335.912H33.948l.168-4.544z"/>
  <path style="fill:#58036d" d="m303.316 338 152.64-3.288v-3.296z"/>
  <path style="fill:#a02bbc" d="M348.924 76.48c0 30.016-49.512 25.68-100.968 25.68-51.472 0-100.968 4.336-100.968-25.68S196.492 0 247.956 0c51.456.008 100.968 46.464 100.968 76.48"/>
  <path style="fill:#8720a0" d="M247.956.008c51.456 0 100.968 46.456 100.968 76.48 0 30.016-49.512 25.68-100.968 25.68-51.472 0-100.968 4.336-100.968-25.68"/>
  <path style="fill:#58036d" d="M247.956.008c51.456 0 100.968 46.456 100.968 76.48 0 30.016-49.512 25.68-100.968 25.68"/>
  <path style="fill:#042635" d="M334.684 97.24c0 5.04-38.824 17.24-86.728 17.24-47.912 0-86.744-12.2-86.744-17.24s38.832-9.136 86.744-9.136c47.904 0 86.728 4.096 86.728 9.136"/>
  <path style="fill:#58036d" d="M187.204 403.912c0 1.616-1.304 4-2.912 4H91.38c-1.624 0-2.936-2.384-2.936-4 0-1.608 1.312-4 2.936-4h92.912c1.608 0 2.912 2.392 2.912 4m0 16c0 1.616-1.304 4-2.912 4H91.38c-1.624 0-2.936-2.384-2.936-4s1.312-4 2.936-4h92.912c1.608 0 2.912 2.384 2.912 4"/>
  <path style="fill:#e5b342" d="m239.22 54.12-11.696-11.696H196.66l11.696 7.472h12.992l4.232 4.224zm9.928 12.352-9.416-9.424h-24.888l9.424 6.024h10.488l3.4 3.4zm-21.64.968 5.216 5.2h13.72l-5.192-3.32h-5.792l-1.872-1.88zm29.184-13.32 11.696-11.696h30.864l-11.696 7.472h-12.992l-4.232 4.224z"/>
  <path style="fill:#e5b342" d="m246.764 66.472 9.416-9.424h24.888l-9.424 6.024h-10.488l-3.392 3.4zm21.64.968-5.216 5.2h-13.72l5.192-3.32h5.792l1.872-1.88z"/>
  <path style="fill:#ffc114" d="M367.956 439.224c0 3.312-1.336 6-4 6s-4-2.688-4-6v-56.832c0-3.312 1.336-6 4-6s4 2.688 4 6z"/>
  <path style="fill:#ffc114" d="M367.956 451.624c0 1.8-2.56 3.24-4 3.24s-4-1.448-4-3.24v-30.72c0-1.792 2.56-3.24 4-3.24s4 1.456 4 3.24zm-8-27.712h-40v-2.944l40-13.816zm8 0h32v-2.944l-32-13.816zm-8 29.128-14.648 4.176V454.8l14.648-11.664z"/>
  <path style="fill:#ffc114" d="m364.332 453.04 14.664 4.176V454.8l-14.664-11.664z"/>
</svg>
